<mxfile host="Electron" agent="Mozilla/5.0 (Windows NT 10.0; Win64; x64) AppleWebKit/537.36 (KHTML, like Gecko) draw.io/24.7.17 Chrome/128.0.6613.36 Electron/32.0.1 Safari/537.36" version="24.7.17">
  <diagram id="C5RBs43oDa-KdzZeNtuy" name="Page-1">
    <mxGraphModel dx="1687" dy="984" grid="1" gridSize="10" guides="1" tooltips="1" connect="1" arrows="1" fold="1" page="1" pageScale="1" pageWidth="1169" pageHeight="827" math="0" shadow="0">
      <root>
        <mxCell id="WIyWlLk6GJQsqaUBKTNV-0" />
        <mxCell id="WIyWlLk6GJQsqaUBKTNV-1" parent="WIyWlLk6GJQsqaUBKTNV-0" />
        <mxCell id="J0Id-BCe7gOTQ0SpKCyi-2" value="&lt;font style=&quot;font-size: 18px;&quot;&gt;Auth&lt;/font&gt;" style="shape=ext;double=1;rounded=0;whiteSpace=wrap;html=1;" vertex="1" parent="WIyWlLk6GJQsqaUBKTNV-1">
          <mxGeometry x="760" y="110" width="120" height="80" as="geometry" />
        </mxCell>
        <mxCell id="J0Id-BCe7gOTQ0SpKCyi-3" value="&lt;font style=&quot;font-size: 18px;&quot;&gt;Products&lt;/font&gt;" style="shape=ext;double=1;rounded=0;whiteSpace=wrap;html=1;" vertex="1" parent="WIyWlLk6GJQsqaUBKTNV-1">
          <mxGeometry x="760" y="230" width="120" height="80" as="geometry" />
        </mxCell>
        <mxCell id="J0Id-BCe7gOTQ0SpKCyi-21" style="edgeStyle=orthogonalEdgeStyle;rounded=0;orthogonalLoop=1;jettySize=auto;html=1;exitX=1;exitY=0.25;exitDx=0;exitDy=0;" edge="1" parent="WIyWlLk6GJQsqaUBKTNV-1" source="J0Id-BCe7gOTQ0SpKCyi-4">
          <mxGeometry relative="1" as="geometry">
            <mxPoint x="1109.75" y="377.7999999999997" as="targetPoint" />
          </mxGeometry>
        </mxCell>
        <mxCell id="J0Id-BCe7gOTQ0SpKCyi-4" value="&lt;font style=&quot;font-size: 18px;&quot;&gt;Orders&lt;/font&gt;" style="shape=ext;double=1;rounded=0;whiteSpace=wrap;html=1;" vertex="1" parent="WIyWlLk6GJQsqaUBKTNV-1">
          <mxGeometry x="760" y="350" width="120" height="80" as="geometry" />
        </mxCell>
        <mxCell id="J0Id-BCe7gOTQ0SpKCyi-5" value="&lt;font style=&quot;font-size: 18px;&quot;&gt;Payment&lt;/font&gt;" style="shape=ext;double=1;rounded=0;whiteSpace=wrap;html=1;" vertex="1" parent="WIyWlLk6GJQsqaUBKTNV-1">
          <mxGeometry x="760" y="470" width="120" height="80" as="geometry" />
        </mxCell>
        <mxCell id="J0Id-BCe7gOTQ0SpKCyi-6" value="&lt;font style=&quot;font-size: 18px;&quot;&gt;Notification&lt;/font&gt;" style="shape=ext;double=1;rounded=0;whiteSpace=wrap;html=1;" vertex="1" parent="WIyWlLk6GJQsqaUBKTNV-1">
          <mxGeometry x="760" y="590" width="120" height="80" as="geometry" />
        </mxCell>
        <mxCell id="J0Id-BCe7gOTQ0SpKCyi-7" value="" style="shape=cylinder3;whiteSpace=wrap;html=1;boundedLbl=1;backgroundOutline=1;size=15;" vertex="1" parent="WIyWlLk6GJQsqaUBKTNV-1">
          <mxGeometry x="910" y="140" width="30" height="50" as="geometry" />
        </mxCell>
        <mxCell id="J0Id-BCe7gOTQ0SpKCyi-8" value="" style="shape=cylinder3;whiteSpace=wrap;html=1;boundedLbl=1;backgroundOutline=1;size=15;" vertex="1" parent="WIyWlLk6GJQsqaUBKTNV-1">
          <mxGeometry x="910" y="260" width="30" height="50" as="geometry" />
        </mxCell>
        <mxCell id="J0Id-BCe7gOTQ0SpKCyi-9" value="" style="shape=cylinder3;whiteSpace=wrap;html=1;boundedLbl=1;backgroundOutline=1;size=15;" vertex="1" parent="WIyWlLk6GJQsqaUBKTNV-1">
          <mxGeometry x="910" y="380" width="30" height="50" as="geometry" />
        </mxCell>
        <mxCell id="J0Id-BCe7gOTQ0SpKCyi-10" value="" style="shape=cylinder3;whiteSpace=wrap;html=1;boundedLbl=1;backgroundOutline=1;size=15;" vertex="1" parent="WIyWlLk6GJQsqaUBKTNV-1">
          <mxGeometry x="910" y="500" width="30" height="50" as="geometry" />
        </mxCell>
        <mxCell id="J0Id-BCe7gOTQ0SpKCyi-11" value="" style="shape=cylinder3;whiteSpace=wrap;html=1;boundedLbl=1;backgroundOutline=1;size=15;" vertex="1" parent="WIyWlLk6GJQsqaUBKTNV-1">
          <mxGeometry x="910" y="620" width="30" height="50" as="geometry" />
        </mxCell>
        <mxCell id="J0Id-BCe7gOTQ0SpKCyi-14" value="" style="endArrow=none;html=1;rounded=0;entryX=0;entryY=0.5;entryDx=0;entryDy=0;entryPerimeter=0;exitX=0.991;exitY=0.68;exitDx=0;exitDy=0;exitPerimeter=0;" edge="1" parent="WIyWlLk6GJQsqaUBKTNV-1" source="J0Id-BCe7gOTQ0SpKCyi-6" target="J0Id-BCe7gOTQ0SpKCyi-11">
          <mxGeometry width="50" height="50" relative="1" as="geometry">
            <mxPoint x="884" y="640" as="sourcePoint" />
            <mxPoint x="870" y="420" as="targetPoint" />
          </mxGeometry>
        </mxCell>
        <mxCell id="J0Id-BCe7gOTQ0SpKCyi-15" value="" style="endArrow=none;html=1;rounded=0;entryX=0;entryY=0;entryDx=0;entryDy=30;entryPerimeter=0;exitX=1;exitY=0.75;exitDx=0;exitDy=0;" edge="1" parent="WIyWlLk6GJQsqaUBKTNV-1" source="J0Id-BCe7gOTQ0SpKCyi-5" target="J0Id-BCe7gOTQ0SpKCyi-10">
          <mxGeometry width="50" height="50" relative="1" as="geometry">
            <mxPoint x="880" y="530" as="sourcePoint" />
            <mxPoint x="910" y="531" as="targetPoint" />
          </mxGeometry>
        </mxCell>
        <mxCell id="J0Id-BCe7gOTQ0SpKCyi-16" value="" style="endArrow=none;html=1;rounded=0;entryX=0;entryY=0.5;entryDx=0;entryDy=0;entryPerimeter=0;exitX=0.991;exitY=0.674;exitDx=0;exitDy=0;exitPerimeter=0;" edge="1" parent="WIyWlLk6GJQsqaUBKTNV-1" source="J0Id-BCe7gOTQ0SpKCyi-4" target="J0Id-BCe7gOTQ0SpKCyi-9">
          <mxGeometry width="50" height="50" relative="1" as="geometry">
            <mxPoint x="880" y="405" as="sourcePoint" />
            <mxPoint x="910" y="405.5" as="targetPoint" />
          </mxGeometry>
        </mxCell>
        <mxCell id="J0Id-BCe7gOTQ0SpKCyi-17" value="" style="endArrow=none;html=1;rounded=0;entryX=0;entryY=0;entryDx=0;entryDy=30;entryPerimeter=0;exitX=1;exitY=0.75;exitDx=0;exitDy=0;" edge="1" parent="WIyWlLk6GJQsqaUBKTNV-1" source="J0Id-BCe7gOTQ0SpKCyi-3" target="J0Id-BCe7gOTQ0SpKCyi-8">
          <mxGeometry width="50" height="50" relative="1" as="geometry">
            <mxPoint x="900" y="300" as="sourcePoint" />
            <mxPoint x="910" y="291" as="targetPoint" />
          </mxGeometry>
        </mxCell>
        <mxCell id="J0Id-BCe7gOTQ0SpKCyi-18" value="" style="endArrow=none;html=1;rounded=0;entryX=0;entryY=0;entryDx=0;entryDy=30;entryPerimeter=0;exitX=1;exitY=0.75;exitDx=0;exitDy=0;" edge="1" parent="WIyWlLk6GJQsqaUBKTNV-1" source="J0Id-BCe7gOTQ0SpKCyi-2" target="J0Id-BCe7gOTQ0SpKCyi-7">
          <mxGeometry width="50" height="50" relative="1" as="geometry">
            <mxPoint x="880" y="164.5" as="sourcePoint" />
            <mxPoint x="910" y="165.5" as="targetPoint" />
          </mxGeometry>
        </mxCell>
        <mxCell id="J0Id-BCe7gOTQ0SpKCyi-22" value="" style="endArrow=classic;html=1;rounded=0;entryX=1;entryY=0.25;entryDx=0;entryDy=0;" edge="1" parent="WIyWlLk6GJQsqaUBKTNV-1" target="J0Id-BCe7gOTQ0SpKCyi-6">
          <mxGeometry width="50" height="50" relative="1" as="geometry">
            <mxPoint x="1109.75" y="516.5" as="sourcePoint" />
            <mxPoint x="910" y="430" as="targetPoint" />
          </mxGeometry>
        </mxCell>
        <mxCell id="J0Id-BCe7gOTQ0SpKCyi-25" value="" style="endArrow=classic;html=1;rounded=0;" edge="1" parent="WIyWlLk6GJQsqaUBKTNV-1">
          <mxGeometry width="50" height="50" relative="1" as="geometry">
            <mxPoint x="880" y="480" as="sourcePoint" />
            <mxPoint x="1109.75" y="480" as="targetPoint" />
          </mxGeometry>
        </mxCell>
        <mxCell id="J0Id-BCe7gOTQ0SpKCyi-26" value="&lt;font face=&quot;Helvetica&quot;&gt;RabbitMQ&lt;/font&gt;" style="shape=cylinder3;whiteSpace=wrap;html=1;boundedLbl=1;backgroundOutline=1;size=15;verticalAlign=middle;horizontal=0;rotation=-180;" vertex="1" parent="WIyWlLk6GJQsqaUBKTNV-1">
          <mxGeometry x="1110" y="150" width="30" height="370" as="geometry" />
        </mxCell>
        <mxCell id="J0Id-BCe7gOTQ0SpKCyi-29" style="edgeStyle=orthogonalEdgeStyle;rounded=0;orthogonalLoop=1;jettySize=auto;html=1;exitX=1;exitY=0.5;exitDx=0;exitDy=0;entryX=0;entryY=0.5;entryDx=0;entryDy=0;flowAnimation=0;shadow=0;startArrow=classic;startFill=1;" edge="1" parent="WIyWlLk6GJQsqaUBKTNV-1" source="J0Id-BCe7gOTQ0SpKCyi-27" target="J0Id-BCe7gOTQ0SpKCyi-2">
          <mxGeometry relative="1" as="geometry">
            <Array as="points">
              <mxPoint x="640" y="390" />
              <mxPoint x="640" y="150" />
            </Array>
          </mxGeometry>
        </mxCell>
        <mxCell id="J0Id-BCe7gOTQ0SpKCyi-34" style="edgeStyle=orthogonalEdgeStyle;rounded=0;orthogonalLoop=1;jettySize=auto;html=1;exitX=1;exitY=0.5;exitDx=0;exitDy=0;entryX=0;entryY=0.5;entryDx=0;entryDy=0;startArrow=classic;startFill=1;" edge="1" parent="WIyWlLk6GJQsqaUBKTNV-1" source="J0Id-BCe7gOTQ0SpKCyi-27" target="J0Id-BCe7gOTQ0SpKCyi-5">
          <mxGeometry relative="1" as="geometry">
            <Array as="points">
              <mxPoint x="640" y="390" />
              <mxPoint x="640" y="510" />
            </Array>
          </mxGeometry>
        </mxCell>
        <mxCell id="J0Id-BCe7gOTQ0SpKCyi-36" style="edgeStyle=orthogonalEdgeStyle;rounded=0;orthogonalLoop=1;jettySize=auto;html=1;exitX=1;exitY=0.5;exitDx=0;exitDy=0;entryX=0;entryY=0.5;entryDx=0;entryDy=0;startArrow=classic;startFill=1;" edge="1" parent="WIyWlLk6GJQsqaUBKTNV-1" source="J0Id-BCe7gOTQ0SpKCyi-27" target="J0Id-BCe7gOTQ0SpKCyi-4">
          <mxGeometry relative="1" as="geometry" />
        </mxCell>
        <mxCell id="J0Id-BCe7gOTQ0SpKCyi-37" style="edgeStyle=orthogonalEdgeStyle;rounded=0;orthogonalLoop=1;jettySize=auto;html=1;exitX=1;exitY=0.5;exitDx=0;exitDy=0;entryX=0;entryY=0.5;entryDx=0;entryDy=0;startArrow=classic;startFill=1;" edge="1" parent="WIyWlLk6GJQsqaUBKTNV-1" source="J0Id-BCe7gOTQ0SpKCyi-27" target="J0Id-BCe7gOTQ0SpKCyi-3">
          <mxGeometry relative="1" as="geometry">
            <Array as="points">
              <mxPoint x="640" y="390" />
              <mxPoint x="640" y="270" />
            </Array>
          </mxGeometry>
        </mxCell>
        <mxCell id="J0Id-BCe7gOTQ0SpKCyi-27" value="API GateWay" style="rounded=1;whiteSpace=wrap;html=1;" vertex="1" parent="WIyWlLk6GJQsqaUBKTNV-1">
          <mxGeometry x="450" y="360" width="120" height="60" as="geometry" />
        </mxCell>
        <mxCell id="J0Id-BCe7gOTQ0SpKCyi-35" style="edgeStyle=orthogonalEdgeStyle;rounded=0;orthogonalLoop=1;jettySize=auto;html=1;exitX=1;exitY=0.5;exitDx=0;exitDy=0;entryX=-0.029;entryY=0.594;entryDx=0;entryDy=0;entryPerimeter=0;startArrow=classic;startFill=1;" edge="1" parent="WIyWlLk6GJQsqaUBKTNV-1" source="J0Id-BCe7gOTQ0SpKCyi-27" target="J0Id-BCe7gOTQ0SpKCyi-6">
          <mxGeometry relative="1" as="geometry">
            <Array as="points">
              <mxPoint x="640" y="390" />
              <mxPoint x="640" y="637" />
            </Array>
          </mxGeometry>
        </mxCell>
        <mxCell id="J0Id-BCe7gOTQ0SpKCyi-39" value="" style="swimlane;startSize=0;strokeWidth=2;" vertex="1" parent="WIyWlLk6GJQsqaUBKTNV-1">
          <mxGeometry x="350" y="40" width="810" height="710" as="geometry" />
        </mxCell>
        <mxCell id="J0Id-BCe7gOTQ0SpKCyi-40" value="" style="swimlane;startSize=0;rounded=1;glass=0;shadow=0;swimlaneLine=1;strokeWidth=2;" vertex="1" parent="WIyWlLk6GJQsqaUBKTNV-1">
          <mxGeometry x="60" y="40" width="200" height="710" as="geometry">
            <mxRectangle x="70" y="40" width="50" height="40" as="alternateBounds" />
          </mxGeometry>
        </mxCell>
        <mxCell id="J0Id-BCe7gOTQ0SpKCyi-41" value="&lt;font style=&quot;font-size: 18px;&quot;&gt;&lt;b&gt;Client&lt;/b&gt;&lt;/font&gt;" style="text;html=1;align=center;verticalAlign=middle;resizable=0;points=[];autosize=1;strokeColor=none;fillColor=none;" vertex="1" parent="J0Id-BCe7gOTQ0SpKCyi-40">
          <mxGeometry width="70" height="40" as="geometry" />
        </mxCell>
        <mxCell id="J0Id-BCe7gOTQ0SpKCyi-44" value="&lt;b&gt;&lt;font style=&quot;font-size: 16px;&quot;&gt;Client&lt;/font&gt;&lt;/b&gt;" style="rounded=1;whiteSpace=wrap;html=1;" vertex="1" parent="J0Id-BCe7gOTQ0SpKCyi-40">
          <mxGeometry x="40" y="320" width="120" height="60" as="geometry" />
        </mxCell>
        <mxCell id="J0Id-BCe7gOTQ0SpKCyi-43" value="&lt;span style=&quot;font-size: 18px;&quot;&gt;&lt;b&gt;MicroService&lt;/b&gt;&lt;/span&gt;" style="text;html=1;align=center;verticalAlign=middle;resizable=0;points=[];autosize=1;strokeColor=none;fillColor=none;" vertex="1" parent="WIyWlLk6GJQsqaUBKTNV-1">
          <mxGeometry x="350" y="40" width="140" height="40" as="geometry" />
        </mxCell>
        <mxCell id="J0Id-BCe7gOTQ0SpKCyi-45" value="" style="endArrow=classic;startArrow=classic;html=1;rounded=0;exitX=1;exitY=0.5;exitDx=0;exitDy=0;entryX=0;entryY=0.5;entryDx=0;entryDy=0;" edge="1" parent="WIyWlLk6GJQsqaUBKTNV-1" source="J0Id-BCe7gOTQ0SpKCyi-44" target="J0Id-BCe7gOTQ0SpKCyi-27">
          <mxGeometry width="50" height="50" relative="1" as="geometry">
            <mxPoint x="530" y="420" as="sourcePoint" />
            <mxPoint x="580" y="370" as="targetPoint" />
          </mxGeometry>
        </mxCell>
      </root>
    </mxGraphModel>
  </diagram>
</mxfile>
